<svg width="48" height="48" viewBox="0 0 48 48" fill="none" xmlns="http://www.w3.org/2000/svg">
<path fill-rule="evenodd" clip-rule="evenodd" d="M48 24C48 37.255 37.255 48 24 48C10.745 48 0 37.255 0 24C0 10.745 10.745 0 24 0C37.255 0 48 10.745 48 24Z" fill="#6EC5EF"/>
<mask id="mask0_3873_33075" style="mask-type:luminance" maskUnits="userSpaceOnUse" x="0" y="0" width="48" height="48">
<path d="M24 48C37.255 48 48 37.255 48 24C48 10.745 37.255 0 24 0C10.745 0 0 10.745 0 24C0 37.255 10.745 48 24 48Z" fill="white"/>
</mask>
<g mask="url(#mask0_3873_33075)">
<path d="M18.9859 19.2002H5.29093C4.24021 19.2002 3.38843 20.052 3.38843 21.1027V49.5902C3.38843 50.6409 4.24021 51.4927 5.29093 51.4927H18.9859C20.0366 51.4927 20.8884 50.6409 20.8884 49.5902V21.1027C20.8884 20.052 20.0366 19.2002 18.9859 19.2002Z" fill="#001F63"/>
<path d="M18.9188 19.8398H5.35875C4.72915 19.8398 4.21875 20.3502 4.21875 20.9798V35.6823C4.21875 36.3119 4.72915 36.8223 5.35875 36.8223H18.9188C19.5484 36.8223 20.0588 36.3119 20.0588 35.6823V20.9798C20.0588 20.3502 19.5484 19.8398 18.9188 19.8398Z" fill="#001F48"/>
<path d="M17.788 21.2275H6.49046C5.96441 21.2275 5.53796 21.654 5.53796 22.18V34.4825C5.53796 35.0086 5.96441 35.435 6.49046 35.435H17.788C18.314 35.435 18.7405 35.0086 18.7405 34.4825V22.18C18.7405 21.654 18.314 21.2275 17.788 21.2275Z" fill="white"/>
<path d="M6.42546 21.2275H17.853C18.343 21.2275 18.7405 21.625 18.7405 22.115V23.49H5.53796V22.115C5.53796 21.625 5.93546 21.2275 6.42546 21.2275Z" fill="#E6E6E6"/>
<path d="M7.67593 37.7285H5.52093C5.24064 37.7285 5.01343 37.9557 5.01343 38.236V39.1235C5.01343 39.4038 5.24064 39.631 5.52093 39.631H7.67593C7.95621 39.631 8.18343 39.4038 8.18343 39.1235V38.236C8.18343 37.9557 7.95621 37.7285 7.67593 37.7285Z" fill="white"/>
<path d="M11.641 37.7285H9.48602C9.20573 37.7285 8.97852 37.9557 8.97852 38.236V39.1235C8.97852 39.4038 9.20573 39.631 9.48602 39.631H11.641C11.9213 39.631 12.1485 39.4038 12.1485 39.1235V38.236C12.1485 37.9557 11.9213 37.7285 11.641 37.7285Z" fill="white"/>
<path d="M15.6037 37.7285H13.4487C13.1684 37.7285 12.9412 37.9557 12.9412 38.236V39.1235C12.9412 39.4038 13.1684 39.631 13.4487 39.631H15.6037C15.8839 39.631 16.1112 39.4038 16.1112 39.1235V38.236C16.1112 37.9557 15.8839 37.7285 15.6037 37.7285Z" fill="white"/>
<path d="M18.7867 37.7285H17.2617C17.0173 37.7285 16.8192 37.9266 16.8192 38.171V39.1885C16.8192 39.4329 17.0173 39.631 17.2617 39.631H18.7867C19.0311 39.631 19.2292 39.4329 19.2292 39.1885V38.171C19.2292 37.9266 19.0311 37.7285 18.7867 37.7285Z" fill="white"/>
<path d="M18.7867 40.3311H17.2617C17.0173 40.3311 16.8192 40.5292 16.8192 40.7736V41.7911C16.8192 42.0354 17.0173 42.2336 17.2617 42.2336H18.7867C19.0311 42.2336 19.2292 42.0354 19.2292 41.7911V40.7736C19.2292 40.5292 19.0311 40.3311 18.7867 40.3311Z" fill="white"/>
<path d="M18.5641 43.1035H17.4791C17.0939 43.1035 16.7816 43.4158 16.7816 43.801V47.0135C16.7816 47.3987 17.0939 47.711 17.4791 47.711H18.5641C18.9493 47.711 19.2616 47.3987 19.2616 47.0135V43.801C19.2616 43.4158 18.9493 43.1035 18.5641 43.1035Z" fill="#05BE50"/>
<path d="M7.67593 40.4131H5.52093C5.24064 40.4131 5.01343 40.6403 5.01343 40.9206V41.8081C5.01343 42.0884 5.24064 42.3156 5.52093 42.3156H7.67593C7.95621 42.3156 8.18343 42.0884 8.18343 41.8081V40.9206C8.18343 40.6403 7.95621 40.4131 7.67593 40.4131Z" fill="white"/>
<path d="M11.641 40.4131H9.48602C9.20573 40.4131 8.97852 40.6403 8.97852 40.9206V41.8081C8.97852 42.0884 9.20573 42.3156 9.48602 42.3156H11.641C11.9213 42.3156 12.1485 42.0884 12.1485 41.8081V40.9206C12.1485 40.6403 11.9213 40.4131 11.641 40.4131Z" fill="white"/>
<path d="M15.6037 40.4131H13.4487C13.1684 40.4131 12.9412 40.6403 12.9412 40.9206V41.8081C12.9412 42.0884 13.1684 42.3156 13.4487 42.3156H15.6037C15.8839 42.3156 16.1112 42.0884 16.1112 41.8081V40.9206C16.1112 40.6403 15.8839 40.4131 15.6037 40.4131Z" fill="white"/>
<path d="M7.67593 43.0957H5.52093C5.24064 43.0957 5.01343 43.3229 5.01343 43.6032V44.4907C5.01343 44.771 5.24064 44.9982 5.52093 44.9982H7.67593C7.95621 44.9982 8.18343 44.771 8.18343 44.4907V43.6032C8.18343 43.3229 7.95621 43.0957 7.67593 43.0957Z" fill="white"/>
<path d="M11.641 43.0957H9.48602C9.20573 43.0957 8.97852 43.3229 8.97852 43.6032V44.4907C8.97852 44.771 9.20573 44.9982 9.48602 44.9982H11.641C11.9213 44.9982 12.1485 44.771 12.1485 44.4907V43.6032C12.1485 43.3229 11.9213 43.0957 11.641 43.0957Z" fill="white"/>
<path d="M15.6037 43.0957H13.4487C13.1684 43.0957 12.9412 43.3229 12.9412 43.6032V44.4907C12.9412 44.771 13.1684 44.9982 13.4487 44.9982H15.6037C15.8839 44.9982 16.1112 44.771 16.1112 44.4907V43.6032C16.1112 43.3229 15.8839 43.0957 15.6037 43.0957Z" fill="white"/>
<path d="M7.67593 45.8086H5.52093C5.24064 45.8086 5.01343 46.0358 5.01343 46.3161V47.2036C5.01343 47.4839 5.24064 47.7111 5.52093 47.7111H7.67593C7.95621 47.7111 8.18343 47.4839 8.18343 47.2036V46.3161C8.18343 46.0358 7.95621 45.8086 7.67593 45.8086Z" fill="white"/>
<path d="M11.641 45.8086H9.48602C9.20573 45.8086 8.97852 46.0358 8.97852 46.3161V47.2036C8.97852 47.4839 9.20573 47.7111 9.48602 47.7111H11.641C11.9213 47.7111 12.1485 47.4839 12.1485 47.2036V46.3161C12.1485 46.0358 11.9213 45.8086 11.641 45.8086Z" fill="white"/>
<path d="M15.6037 45.8086H13.4487C13.1684 45.8086 12.9412 46.0358 12.9412 46.3161V47.2036C12.9412 47.4839 13.1684 47.7111 13.4487 47.7111H15.6037C15.8839 47.7111 16.1112 47.4839 16.1112 47.2036V46.3161C16.1112 46.0358 15.8839 45.8086 15.6037 45.8086Z" fill="white"/>
<path fill-rule="evenodd" clip-rule="evenodd" d="M11.0587 29.1423L9.36125 29.1373C8.90875 29.1373 8.53625 29.5048 8.53625 29.9573L8.53125 31.6548C8.53125 32.1073 8.89875 32.4798 9.35125 32.4798L11.0487 32.4848C11.5012 32.4848 11.8737 32.1173 11.8737 31.6648L11.8787 29.9673C11.8787 29.5148 11.5113 29.1423 11.0587 29.1423ZM11.3612 31.6623C11.3612 31.8323 11.2212 31.9698 11.0512 31.9698L9.35375 31.9648C9.18375 31.9648 9.04625 31.8248 9.04625 31.6548L9.05125 29.9573C9.05125 29.7873 9.19125 29.6498 9.36125 29.6498L11.0587 29.6548C11.2287 29.6548 11.3662 29.7948 11.3662 29.9648L11.3612 31.6623ZM10.8512 30.3298V31.2948C10.8487 31.3823 10.7762 31.4548 10.6887 31.4548H9.72375C9.63625 31.4523 9.56375 31.3798 9.56375 31.2923V30.3273C9.56625 30.2398 9.63875 30.1673 9.72625 30.1673H10.6912C10.7787 30.1698 10.8512 30.2423 10.8512 30.3298ZM11.0687 25.2823L9.37125 25.2773C8.91875 25.2773 8.54625 25.6448 8.54625 26.0973L8.54125 27.7948C8.54125 28.2473 8.90875 28.6198 9.36125 28.6198L11.0587 28.6248C11.5113 28.6248 11.8837 28.2573 11.8837 27.8048L11.8887 26.1073C11.8887 25.6548 11.5212 25.2823 11.0687 25.2823ZM11.3712 27.8023C11.3712 27.9723 11.2312 28.1098 11.0612 28.1098L9.36375 28.1048C9.19375 28.1048 9.05625 27.9648 9.05625 27.7948L9.06125 26.0973C9.06125 25.9273 9.20125 25.7898 9.37125 25.7898L11.0687 25.7948C11.2387 25.7948 11.3762 25.9348 11.3762 26.1048L11.3712 27.8023ZM10.8612 26.4698V27.4348C10.8587 27.5223 10.7862 27.5948 10.6987 27.5948H9.73375C9.64625 27.5923 9.57375 27.5198 9.57375 27.4323V26.4673C9.57625 26.3798 9.64875 26.3073 9.73625 26.3073H10.7012C10.7887 26.3098 10.8612 26.3823 10.8612 26.4698ZM14.9287 25.2898L13.2312 25.2848C12.7787 25.2848 12.4062 25.6523 12.4062 26.1048L12.4012 27.8023C12.4012 28.2548 12.7687 28.6273 13.2212 28.6273L14.9187 28.6323C15.3712 28.6323 15.7437 28.2648 15.7437 27.8123L15.7487 26.1148C15.7487 25.6623 15.3812 25.2898 14.9287 25.2898ZM15.2312 27.8098C15.2312 27.9798 15.0912 28.1173 14.9212 28.1173L13.2237 28.1123C13.0538 28.1123 12.9162 27.9723 12.9162 27.8023L12.9212 26.1048C12.9212 25.9348 13.0612 25.7973 13.2312 25.7973L14.9287 25.8023C15.0987 25.8023 15.2362 25.9423 15.2362 26.1123L15.2312 27.8098ZM14.7212 26.4773V27.4423C14.7187 27.5298 14.6462 27.6023 14.5587 27.6023H13.5937C13.5062 27.5998 13.4337 27.5273 13.4337 27.4398V26.4748C13.4362 26.3873 13.5087 26.3148 13.5962 26.3148H14.5612C14.6487 26.3173 14.7212 26.3898 14.7212 26.4773ZM13.4287 29.2698V30.0423C13.4287 30.1123 13.3687 30.1698 13.2987 30.1698H12.5262C12.4562 30.1698 12.3987 30.1098 12.3987 30.0398V29.2673C12.3987 29.1973 12.4587 29.1398 12.5287 29.1398H13.3012C13.3712 29.1398 13.4287 29.1998 13.4287 29.2698ZM14.7162 31.3373C14.7162 31.4073 14.6587 31.4648 14.5862 31.4648H13.5587C13.4887 31.4623 13.4312 31.4048 13.4312 31.3323V30.3048C13.4337 30.2348 13.4912 30.1773 13.5637 30.1773H14.5912C14.6612 30.1798 14.7187 30.2373 14.7187 30.3098V31.3373H14.7162ZM15.7412 29.2773V30.0498C15.7412 30.1198 15.6812 30.1773 15.6112 30.1773H14.8387C14.7687 30.1773 14.7112 30.1173 14.7112 30.0473V29.2748C14.7112 29.2048 14.7712 29.1473 14.8412 29.1473H15.6137C15.6837 29.1473 15.7412 29.2073 15.7412 29.2773ZM13.4212 31.5848V32.3573C13.4212 32.4273 13.3612 32.4848 13.2912 32.4848H12.5187C12.4488 32.4848 12.3912 32.4248 12.3912 32.3548V31.5823C12.3912 31.5123 12.4512 31.4548 12.5212 31.4548H13.2937C13.3637 31.4548 13.4212 31.5148 13.4212 31.5848ZM15.7362 31.5898V32.3623C15.7362 32.4323 15.6762 32.4898 15.6062 32.4898H14.8337C14.7637 32.4898 14.7062 32.4298 14.7062 32.3598V31.5873C14.7062 31.5173 14.7662 31.4598 14.8362 31.4598H15.6087C15.6787 31.4598 15.7362 31.5198 15.7362 31.5898Z" fill="#001F63"/>
<path d="M34.3014 33.764C33.3014 32.894 32.2889 32.029 31.2164 31.2415C30.1514 30.4465 29.0514 29.694 27.9014 28.9815C26.7539 28.2615 25.5589 27.594 24.3164 26.8115C23.6989 26.429 23.0664 25.979 22.4539 25.479C21.8439 24.954 21.2714 24.334 20.8064 23.634C20.4064 23.0315 20.5764 22.224 21.1889 21.829C21.7589 21.4615 22.5064 21.5815 22.9314 22.084L22.9839 22.1465C23.3364 22.5615 23.7464 22.929 24.2239 23.2665C24.7239 23.594 25.2564 23.904 25.8564 24.1965C27.0314 24.784 28.3314 25.354 29.6114 25.9865C30.8964 26.6165 32.1714 27.3115 33.4139 28.059C34.6639 28.7965 35.8564 29.624 37.0389 30.4615C38.0114 31.1515 38.2314 32.4865 37.5314 33.444C36.8314 34.4015 35.4739 34.619 34.5014 33.929C34.4439 33.889 34.3889 33.844 34.3339 33.799L34.2964 33.7665L34.3014 33.764Z" fill="#FFBA50"/>
<path d="M35.252 32.0115C34.4095 31.154 33.562 30.2965 32.697 29.494C31.832 28.6865 30.9545 27.9115 30.047 27.239C29.1395 26.5615 28.2095 26.004 27.1645 25.509C26.112 25.0165 24.9395 24.5465 23.7795 24.0165C23.072 23.694 22.767 22.8665 23.0945 22.1715C23.3995 21.5265 24.142 21.219 24.812 21.4365C25.9595 21.8065 27.137 22.119 28.387 22.529C29.642 22.9465 30.9245 23.5165 32.0845 24.1865C33.252 24.854 34.322 25.594 35.362 26.3515C36.4045 27.1065 37.392 27.894 38.3795 28.684C39.3695 29.474 39.5195 30.904 38.717 31.879C37.9145 32.854 36.462 33.0015 35.472 32.2115C35.402 32.1565 35.337 32.099 35.277 32.0365L35.252 32.0115Z" fill="#FFBB50"/>
<path d="M32.5188 35.9407C31.6913 35.2482 30.8463 34.5732 29.9588 33.9457C29.0713 33.3182 28.1488 32.7257 27.1863 32.1482C26.2238 31.5682 25.2138 31.0057 24.1663 30.3457C23.1263 29.6932 22.0288 28.8682 21.1438 27.8132C20.6213 27.1857 20.7113 26.2607 21.3488 25.7457C21.9263 25.2782 22.7563 25.3082 23.2963 25.7882L23.3513 25.8357C24.0438 26.4507 24.8738 26.9332 25.8563 27.3782C26.8313 27.8232 27.9063 28.2457 28.9938 28.7157C30.0838 29.1832 31.1863 29.6957 32.2688 30.2582C33.3513 30.8207 34.4063 31.4482 35.4413 32.1007C36.5788 32.8182 36.9088 34.3057 36.1813 35.4257C35.4538 36.5457 33.9413 36.8707 32.8063 36.1557C32.7163 36.0982 32.6313 36.0357 32.5513 35.9707L32.5213 35.9457L32.5188 35.9407Z" fill="#FFBA50"/>
<path d="M33.3986 40.966C31.5411 39.7635 29.6711 38.5635 27.8061 37.221C26.8761 36.5435 25.9461 35.8235 25.0561 34.971C24.6086 34.556 24.1836 34.076 23.7836 33.576C23.3886 33.061 23.0361 32.501 22.7461 31.911C22.3861 31.181 22.6936 30.3035 23.4361 29.9485C24.1061 29.6285 24.9011 29.846 25.3111 30.431L25.3611 30.5035C25.6136 30.861 25.8961 31.191 26.2186 31.506C26.5561 31.8135 26.9036 32.1135 27.3061 32.391C28.0936 32.9535 28.9861 33.4685 29.9186 33.9585C31.7886 34.9385 33.7786 35.851 35.7736 36.7735H35.7811C37.0036 37.341 37.5286 38.776 36.9536 39.9785C36.3786 41.181 34.9236 41.6985 33.7036 41.1335C33.6011 41.086 33.4911 41.0235 33.3986 40.966Z" fill="#FFBA50"/>
<path d="M22.7095 25.5283C26.5745 27.5383 31.237 30.2858 31.237 30.2858" stroke="#FF8A00" stroke-width="3.22" stroke-miterlimit="10" stroke-linecap="round"/>
<path d="M23.749 29.7861C27.769 31.4736 32.6465 33.8286 32.6465 33.8286" stroke="#FF8A00" stroke-width="3.22" stroke-miterlimit="10" stroke-linecap="round"/>
<path d="M46.9237 42.6718C46.8237 40.1118 43.4737 31.1118 39.9087 29.0718C31.4937 24.2543 23.7137 32.8743 31.9337 40.5443C34.0212 42.4918 34.9112 44.8593 39.8962 45.7293L46.9212 42.6718H46.9237Z" fill="#FFBA50"/>
<path d="M43.6311 33.4866L31.0936 38.2266C30.0286 38.6291 28.8361 38.1066 28.4261 37.0566L18.6361 11.9441C18.2286 10.8966 18.7586 9.72163 19.8236 9.31913L32.3611 4.57913C33.4261 4.17663 34.6186 4.69913 35.0286 5.74913L44.8186 30.8616C45.2261 31.9091 44.6961 33.0841 43.6311 33.4866Z" fill="#003AAC"/>
<path d="M43.0307 29.1141L28.5682 34.5791L19.6832 11.7941L34.1457 6.3291L43.0307 29.1141Z" fill="white"/>
<path d="M36.539 35.0146C37.2515 35.0146 37.829 34.446 37.829 33.7446C37.829 33.0432 37.2515 32.4746 36.539 32.4746C35.8266 32.4746 35.249 33.0432 35.249 33.7446C35.249 34.446 35.8266 35.0146 36.539 35.0146Z" fill="#001F63"/>
<path d="M39.9363 38.8988C40.1163 37.8638 40.3738 37.1013 40.6238 36.3763C40.8713 35.6588 41.1313 35.0038 41.3638 34.3788C41.6013 33.7563 41.8188 33.1563 41.9963 32.6038C42.1813 32.0563 42.3013 31.5288 42.3688 31.1913L42.3938 31.0788L42.4038 31.0363C42.4063 31.0188 42.4163 31.0213 42.4113 30.9663L42.3863 30.4738L42.3263 29.4888C42.2763 28.8313 42.2088 28.1738 42.1288 27.4888C42.0488 26.8063 41.9563 26.0788 41.8988 25.3413C41.8338 24.6038 41.8163 23.8713 41.7963 23.1638C41.7713 22.3013 42.4613 21.5813 43.3388 21.5563C44.1488 21.5338 44.8363 22.1138 44.9538 22.8838V22.8938C45.0538 23.5263 45.2013 24.1338 45.3838 24.7238C45.4763 25.0188 45.5813 25.3113 45.6888 25.6088L46.0488 26.5213L46.8338 28.4488L47.2263 29.4363L47.4188 29.9313C47.4338 29.9613 47.4538 30.0463 47.4738 30.1113L47.5288 30.3188C47.5588 30.4463 47.5913 30.5838 47.6138 30.7088C47.8013 31.7163 47.8038 32.5388 47.8213 33.3288C47.8288 34.1138 47.8038 34.8413 47.7938 35.5438C47.7788 36.2438 47.7788 36.9113 47.8063 37.5263C47.8388 38.1313 47.9088 38.7088 48.0613 39.0213C49.1238 41.1888 48.2038 43.7938 46.0038 44.8413C43.8038 45.8888 41.1563 44.9813 40.0938 42.8138C39.6763 41.9638 39.5638 41.0438 39.7163 40.1813L39.9388 38.9038L39.9363 38.8988Z" fill="#FFBA50"/>
<path d="M58.4995 43.4737L50.1245 36.6162L39.5895 47.3087L45.1395 57.1137L58.4995 43.4737Z" fill="#003AAD"/>
<path fill-rule="evenodd" clip-rule="evenodd" d="M29.9588 21.2359L27.7213 22.0809C27.1238 22.3059 26.8238 22.9709 27.0538 23.5584L27.9138 25.7634C28.1438 26.3534 28.8188 26.6484 29.4163 26.4209L31.6538 25.5759C32.2513 25.3509 32.5513 24.6859 32.3213 24.0984L31.4613 21.8934C31.2313 21.3034 30.5563 21.0084 29.9588 21.2359ZM31.6413 24.3534C31.7263 24.5734 31.6138 24.8234 31.3913 24.9084L29.1538 25.7534C28.9288 25.8384 28.6763 25.7259 28.5913 25.5059L27.7313 23.3009C27.6463 23.0809 27.7588 22.8309 27.9813 22.7459L30.2188 21.9009C30.4438 21.8159 30.6963 21.9284 30.7813 22.1484L31.6413 24.3534ZM30.2888 22.8809L30.7763 24.1334C30.8213 24.2484 30.7638 24.3784 30.6463 24.4234L29.3738 24.9034C29.2563 24.9484 29.1263 24.8909 29.0813 24.7759L28.5938 23.5234C28.5488 23.4084 28.6063 23.2784 28.7238 23.2334L29.9963 22.7534C30.1138 22.7084 30.2438 22.7659 30.2888 22.8809ZM28.0038 16.2259L25.7663 17.0709C25.1688 17.2959 24.8688 17.9609 25.0988 18.5484L25.9588 20.7534C26.1888 21.3434 26.8638 21.6384 27.4613 21.4109L29.6988 20.5659C30.2963 20.3409 30.5963 19.6759 30.3663 19.0884L29.5063 16.8834C29.2763 16.2934 28.6013 15.9984 28.0038 16.2259ZM29.6863 19.3434C29.7713 19.5634 29.6588 19.8134 29.4363 19.8984L27.1988 20.7434C26.9738 20.8284 26.7213 20.7159 26.6363 20.4959L25.7763 18.2909C25.6913 18.0709 25.8038 17.8209 26.0263 17.7359L28.2638 16.8909C28.4888 16.8059 28.7413 16.9184 28.8263 17.1384L29.6863 19.3434ZM28.3338 17.8709L28.8213 19.1234C28.8663 19.2384 28.8088 19.3684 28.6913 19.4134L27.4188 19.8934C27.3013 19.9384 27.1713 19.8809 27.1263 19.7659L26.6388 18.5134C26.5938 18.3984 26.6513 18.2684 26.7688 18.2234L28.0413 17.7434C28.1588 17.6984 28.2888 17.7559 28.3338 17.8709ZM33.0888 14.3034L30.8513 15.1484C30.2538 15.3734 29.9538 16.0384 30.1838 16.6259L31.0438 18.8309C31.2738 19.4209 31.9488 19.7159 32.5463 19.4884L34.7838 18.6434C35.3813 18.4184 35.6813 17.7534 35.4513 17.1659L34.5913 14.9609C34.3613 14.3709 33.6863 14.0759 33.0888 14.3034ZM34.7713 17.4209C34.8563 17.6409 34.7438 17.8909 34.5213 17.9759L32.2838 18.8209C32.0588 18.9059 31.8063 18.7934 31.7213 18.5734L30.8613 16.3684C30.7763 16.1484 30.8888 15.8984 31.1113 15.8134L33.3488 14.9684C33.5738 14.8834 33.8263 14.9959 33.9113 15.2159L34.7713 17.4209ZM33.4188 15.9484L33.9063 17.2009C33.9513 17.3159 33.8938 17.4459 33.7763 17.4909L32.5038 17.9709C32.3863 18.0159 32.2563 17.9584 32.2113 17.8434L31.7238 16.5909C31.6788 16.4759 31.7363 16.3459 31.8538 16.3009L33.1263 15.8209C33.2438 15.7759 33.3738 15.8334 33.4188 15.9484ZM33.1388 20.2209L33.5288 21.2234C33.5638 21.3159 33.5188 21.4184 33.4238 21.4534L32.4063 21.8384C32.3138 21.8734 32.2088 21.8284 32.1713 21.7359L31.7813 20.7334C31.7463 20.6409 31.7913 20.5384 31.8863 20.5034L32.9038 20.1184C32.9963 20.0834 33.1013 20.1284 33.1388 20.2209ZM35.8888 22.2559C35.9238 22.3484 35.8788 22.4509 35.7838 22.4859L34.4263 22.9984C34.3338 23.0334 34.2288 22.9884 34.1913 22.8959L33.6713 21.5609C33.6363 21.4684 33.6813 21.3659 33.7763 21.3309L35.1338 20.8184C35.2288 20.7834 35.3313 20.8284 35.3688 20.9209L35.8888 22.2559ZM36.1913 19.0659L36.5813 20.0684C36.6163 20.1609 36.5713 20.2634 36.4763 20.2984L35.4588 20.6834C35.3663 20.7184 35.2613 20.6734 35.2238 20.5809L34.8338 19.5784C34.7988 19.4859 34.8438 19.3834 34.9388 19.3484L35.9563 18.9634C36.0488 18.9284 36.1538 18.9734 36.1913 19.0659ZM34.3113 23.2234L34.7013 24.2259C34.7363 24.3184 34.6913 24.4209 34.5963 24.4559L33.5788 24.8409C33.4863 24.8759 33.3813 24.8309 33.3438 24.7384L32.9538 23.7359C32.9188 23.6434 32.9638 23.5409 33.0588 23.5059L34.0763 23.1209C34.1688 23.0859 34.2738 23.1309 34.3113 23.2234ZM37.3638 22.0709L37.7538 23.0734C37.7888 23.1659 37.7438 23.2684 37.6488 23.3034L36.6313 23.6884C36.5388 23.7234 36.4338 23.6784 36.3963 23.5859L36.0063 22.5834C35.9713 22.4909 36.0163 22.3884 36.1113 22.3534L37.1288 21.9684C37.2213 21.9334 37.3263 21.9784 37.3638 22.0709Z" fill="#05BE50"/>
<path d="M23.7966 17.1688C23.6191 17.5638 23.6091 18.0063 23.7641 18.4113L24.4791 20.2713C24.5516 20.4613 24.4566 20.6763 24.2666 20.7488C24.2241 20.7663 24.1791 20.7738 24.1341 20.7738C23.9866 20.7738 23.8466 20.6838 23.7891 20.5363L23.0741 18.6763C22.8491 18.0863 22.8641 17.4438 23.1216 16.8688C23.3791 16.2913 23.8441 15.8488 24.4341 15.6238L26.2941 14.9088C26.4841 14.8363 26.6991 14.9313 26.7716 15.1213C26.8441 15.3113 26.7491 15.5263 26.5591 15.5988L24.6991 16.3138C24.2941 16.4688 23.9741 16.7738 23.7966 17.1688ZM36.7241 15.9413C36.7691 15.9413 36.8141 15.9338 36.8566 15.9163C37.0466 15.8438 37.1416 15.6288 37.0691 15.4388L36.3541 13.5788C35.8866 12.3613 34.5166 11.7513 33.3016 12.2188L31.4416 12.9338C31.2516 13.0063 31.1566 13.2213 31.2291 13.4113C31.3016 13.6013 31.5166 13.6963 31.7066 13.6238L33.5666 12.9088C34.4016 12.5888 35.3441 13.0063 35.6641 13.8438L36.3791 15.7038C36.4366 15.8513 36.5766 15.9413 36.7241 15.9413ZM31.1291 27.4988L29.2691 28.2138C28.4341 28.5338 27.4916 28.1163 27.1716 27.2788L26.4566 25.4188C26.3841 25.2288 26.1691 25.1338 25.9791 25.2063C25.7891 25.2788 25.6941 25.4938 25.7666 25.6838L26.4816 27.5438C26.8416 28.4838 27.7391 29.0613 28.6891 29.0613C28.9691 29.0613 29.2566 29.0113 29.5341 28.9038L31.3941 28.1888C31.5841 28.1163 31.6791 27.9013 31.6066 27.7113C31.5341 27.5213 31.3191 27.4263 31.1291 27.4988ZM39.7591 22.4463L39.0441 20.5863C38.9716 20.3963 38.7566 20.3013 38.5666 20.3738C38.3766 20.4463 38.2816 20.6613 38.3541 20.8513L39.0691 22.7113C39.2241 23.1163 39.2141 23.5588 39.0366 23.9538C38.8591 24.3488 38.5391 24.6538 38.1341 24.8088L36.2741 25.5238C36.0841 25.5963 35.9891 25.8113 36.0616 26.0013C36.1191 26.1488 36.2591 26.2388 36.4066 26.2388C36.4516 26.2388 36.4966 26.2313 36.5391 26.2138L38.3991 25.4988C38.9891 25.2738 39.4541 24.8313 39.7116 24.2538C39.9691 23.6763 39.9841 23.0363 39.7591 22.4463Z" fill="#003AAC"/>
</g>
</svg>
